<svg id="eOslxiMbcGh1" xmlns="http://www.w3.org/2000/svg" xmlns:xlink="http://www.w3.org/1999/xlink" viewBox="0 0 4096 4096" shape-rendering="geometricPrecision" text-rendering="geometricPrecision" project-id="f1a803bbdc4e41e192ce67acd85bcbd7" export-id="3ee55b0115c246e9af3cc6a2368065e2" cached="false">
<style><![CDATA[
#eOslxiMbcGh5_tr {animation: eOslxiMbcGh5_tr__tr 6000ms linear infinite normal forwards}@keyframes eOslxiMbcGh5_tr__tr { 0% {transform: translate(2048.004028px,2048.012207px) rotate(-720deg)} 100% {transform: translate(2048.004028px,2048.012207px) rotate(360deg)}} #eOslxiMbcGh15_tr {animation: eOslxiMbcGh15_tr__tr 6000ms linear infinite normal forwards}@keyframes eOslxiMbcGh15_tr__tr { 0% {transform: translate(1981.287476px,1991.688416px) rotate(0deg)} 100% {transform: translate(1981.287476px,1991.688416px) rotate(360deg)}}
]]></style>
<rect width="4096" height="4096" rx="0" ry="0" clip-rule="evenodd" fill="none" fill-rule="evenodd" stroke-linecap="round" stroke-linejoin="round" stroke-miterlimit="1.5"/><g clip-rule="evenodd"><path d="M2048,328c949.294,0,1720,770.706,1720,1720s-770.706,1720-1720,1720-1720-770.706-1720-1720s770.706-1720,1720-1720Zm0,1653c-36.978,0-67,30.022-67,67s30.022,67,67,67s67-30.022,67-67-30.022-67-67-67Z" clip-rule="evenodd" fill-rule="evenodd" stroke-linecap="round" stroke-linejoin="round" stroke-miterlimit="1.5"/><g id="eOslxiMbcGh5_tr" transform="translate(2048.004028,2048.012207) rotate(-720)"><path d="M807.344,1369.52c129.834-236.723,325.45-432.339,562.173-562.173-3.274,5.517-6.527,11.074-9.757,16.67-109.507,65.354-209.456,145.814-297.146,238.6-92.786,87.69-173.246,187.639-238.6,297.146-5.596,3.23-11.153,6.483-16.67,9.757Zm2481.31,1356.97c-129.834,236.723-325.45,432.339-562.173,562.173c3.274-5.517,6.527-11.074,9.757-16.67c109.507-65.354,209.456-145.814,297.146-238.6c92.786-87.69,173.246-187.639,238.6-297.146c5.596-3.23,11.153-6.483,16.67-9.757ZM719.204,1426.01C864.788,1115.827,1115.817,864.798,1426,719.214c-2.99,4.319-5.966,8.667-8.927,13.046-146.434,74.523-278.676,174.162-391.394,293.429-119.267,112.718-218.906,244.96-293.429,391.394-4.379,2.961-8.727,5.937-13.046,8.927Zm2657.59,1244c-145.584,310.183-396.613,561.212-706.796,706.796c2.99-4.319,5.966-8.667,8.927-13.046c146.434-74.523,278.676-174.162,391.394-293.429c119.267-112.718,218.906-244.96,293.429-391.394c4.379-2.961,8.727-5.937,13.046-8.927Zm-2759-1166.28c155.122-406.909,479.017-730.804,885.926-885.926-4.57,5.371-9.112,10.807-13.627,16.307-189.202,82.337-358.36,205.27-497.576,358.416-153.146,139.216-276.079,308.374-358.416,497.576-5.5,4.515-10.936,9.057-16.307,13.627Zm2860.41,1088.56c-155.122,406.909-479.017,730.804-885.926,885.926c4.57-5.371,9.112-10.807,13.627-16.307c189.202-82.337,358.36-205.27,497.576-358.416c153.146-139.216,276.079-308.374,358.416-497.576c5.5-4.515,10.936-9.057,16.307-13.627Zm-2961.9-990.283c151.941-521.974,563.719-933.752,1085.69-1085.69-2.124,1.91-4.244,3.834-6.359,5.771-253.276,79.471-479.123,223.91-659.157,414.406-190.496,180.034-334.935,405.881-414.406,659.157-1.937,2.115-3.861,4.235-5.771,6.359l.003-.003Zm3063.4,892.01c-151.941,521.974-563.719,933.752-1085.69,1085.69c2.124-1.91,4.244-3.834,6.359-5.771c253.276-79.471,479.123-223.91,659.157-414.406c190.496-180.034,334.935-405.881,414.406-659.157c1.937-2.115,3.861-4.235,5.771-6.359l-.003.003Zm-3175.8-734.566c120.484-690.082,665.457-1235.06,1355.54-1355.54-2.395,1.295-4.786,2.606-7.173,3.932-333.547,65.885-630.488,241.12-855.637,488.797-247.677,225.149-422.912,522.09-488.797,855.637-1.326,2.387-2.637,4.778-3.932,7.173l-.001.001Zm3288.2,577.122c-120.484,690.082-665.457,1235.06-1355.54,1355.54c2.395-1.295,4.786-2.606,7.173-3.932c333.547-65.885,630.488-241.12,855.637-488.797c247.677-225.149,422.912-522.09,488.797-855.637c1.326-2.387,2.637-4.778,3.932-7.173l.001-.001Z" transform="translate(-2048.004028,-2048.012207)" clip-rule="evenodd" fill="#717171" fill-rule="evenodd" stroke-linecap="round" stroke-linejoin="round" stroke-miterlimit="1.5"/></g><path d="M2828.59,1371.7c9.482,6.919,18.394,14.418,26.708,22.506c15.116,18.637,29.601,37.808,43.422,57.478c5.507,10.209,10.285,20.833,14.346,31.844-25.648-39.204-53.888-76.561-84.476-111.828ZM1197.28,2644.32c-5.507-10.209-10.285-20.833-14.346-31.844c25.648,39.204,53.888,76.561,84.476,111.828-9.482-6.919-18.394-14.418-26.708-22.506-15.116-18.637-29.601-37.808-43.422-57.478ZM2700.27,1318.19c94.799,84.798,173.002,187.774,229.107,303.426-.309,3.853-.671,7.729-1.086,11.627-57.473-121.652-139.429-229.51-239.493-317.199c3.86.671,7.685,1.386,11.472,2.146ZM1395.73,2777.82c-94.799-84.798-173.002-187.774-229.107-303.426.309-3.853.671-7.729,1.086-11.627c57.473,121.652,139.429,229.51,239.493,317.199-3.86-.671-7.685-1.386-11.472-2.146ZM2605.24,1308.58c137.094,103.518,244.543,244.257,307.26,407.131-.874,3.239-1.78,6.488-2.716,9.748-62.835-167.613-173.201-312.078-314.65-416.948c3.387-.003,6.756.019,10.106.069ZM1490.77,2787.43c-137.094-103.518-244.543-244.257-307.26-407.131.874-3.239,1.78-6.488,2.716-9.748c62.835,167.613,173.201,312.078,314.65,416.948-3.387.003-6.756-.019-10.106-.069ZM2531.36,1311.5c168.5,110.87,296.762,277.99,357.979,474.55-1.152,2.985-2.327,5.976-3.525,8.975-60.627-200.783-191.523-371.203-364.035-482.608c3.207-.326,6.4-.632,9.581-.917ZM1564.648,2784.51c-168.5-110.87-296.762-277.99-357.979-474.55c1.152-2.985,2.327-5.976,3.525-8.975c60.627,200.783,191.523,371.203,364.035,482.608-3.207.326-6.4.632-9.581.917ZM2476.085,1318.3c191.516,112.674,334.871,298.584,391.455,519.12-1.321,2.86-2.662,5.726-4.023,8.596-55.505-224.507-201.4-413.547-396.783-526.219c3.127-.516,6.244-1.015,9.351-1.497ZM1619.923,2777.71c-191.516-112.674-334.871-298.584-391.455-519.12c1.321-2.86,2.662-5.726,4.023-8.596c55.505,224.507,201.4,413.547,396.783,526.219-3.127.516-6.244,1.015-9.351,1.497Z" clip-rule="evenodd" fill="#3c3c3c" fill-rule="evenodd" stroke-linecap="round" stroke-linejoin="round" stroke-miterlimit="1.5"/><g clip-rule="evenodd"><path d="M2048,1235c448.707,0,813,364.293,813,813s-364.293,813-813,813-813-364.293-813-813s364.293-813,813-813Zm0,746c-36.978,0-67,30.022-67,67s30.022,67,67,67s67-30.022,67-67-30.022-67-67-67Z" clip-rule="evenodd" fill="#1d1d1d" fill-rule="evenodd" stroke-linecap="round" stroke-linejoin="round" stroke-miterlimit="1.5"/><path d="M2048,1239c446.499,0,809,362.501,809,809s-362.501,809-809,809-809-362.501-809-809s362.501-809,809-809Zm0,8c-442.084,0-801,358.916-801,801s358.916,801,801,801s801-358.916,801-801-358.916-801-801-801Zm0,12c435.461,0,789,353.539,789,789s-353.539,789-789,789-789-353.539-789-789s353.539-789,789-789Zm0,8c-431.046,0-781,349.954-781,781s349.954,781,781,781s781-349.954,781-781-349.954-781-781-781Zm0,73c390.756,0,708,317.244,708,708s-317.244,708-708,708-708-317.244-708-708s317.244-708,708-708Zm0,8c-386.341,0-700,313.659-700,700s313.659,700,700,700s700-313.659,700-700-313.659-700-700-700Zm0,60c353.226,0,640,286.774,640,640s-286.774,640-640,640-640-286.774-640-640s286.774-640,640-640Zm0,8c-348.81,0-632,283.19-632,632s283.19,632,632,632s632-283.19,632-632-283.19-632-632-632Zm0,43c325.078,0,589,263.922,589,589s-263.922,589-589,589-589-263.922-589-589s263.922-589,589-589Zm0,8c-320.663,0-581,260.337-581,581s260.337,581,581,581s581-260.337,581-581-260.337-581-581-581Z" clip-rule="evenodd" fill="#4f4747" fill-rule="evenodd" stroke-linecap="round" stroke-linejoin="round" stroke-miterlimit="1.5"/></g><g clip-rule="evenodd"><path d="M2048,1486c310.176,0,562,251.824,562,562s-251.824,562-562,562-562-251.824-562-562s251.824-562,562-562Zm0,495c-36.978,0-67,30.022-67,67s30.022,67,67,67s67-30.022,67-67-30.022-67-67-67Z" clip-rule="evenodd" fill="#ff0908" fill-rule="evenodd" stroke-linecap="round" stroke-linejoin="round" stroke-miterlimit="1.5"/><path d="M2048,1837c116.454,0,211,94.546,211,211s-94.546,211-211,211-211-94.546-211-211s94.546-211,211-211Zm0,6c-113.143,0-205,91.857-205,205s91.857,205,205,205s205-91.857,205-205-91.857-205-205-205Z" clip-rule="evenodd" fill="#d5190a" fill-rule="evenodd" stroke-linecap="round" stroke-linejoin="round" stroke-miterlimit="1.5"/><path d="M1800.28,2494.89c-122.967-58.958-219.575-164.846-258.804-301.651-39.228-136.806-13.411-277.799,59.627-392.96-54.569,113.813-68.936,250.205-30.404,384.58c38.531,134.375,122.992,242.429,229.581,310.031Z" clip-rule="evenodd" fill="#ffb9b8" fill-rule="evenodd" stroke-linecap="round" stroke-linejoin="round" stroke-miterlimit="1.5"/><path d="M2048,1977c39.186,0,71,31.814,71,71s-31.814,71-71,71-71-31.814-71-71s31.814-71,71-71Zm0,4c-36.978,0-67,30.022-67,67s30.022,67,67,67s67-30.022,67-67-30.022-67-67-67Z" clip-rule="evenodd" fill="#1e0202" fill-rule="evenodd" stroke-linecap="round" stroke-linejoin="round" stroke-miterlimit="1.5"/></g></g><g id="eOslxiMbcGh15_tr" transform="translate(1981.287476,1991.688416) rotate(0)"><g transform="translate(-1981.287475,-1991.688415)"><g clip-rule="evenodd"><g clip-rule="evenodd"><path d="M2108.72,2269.28c-49.851,326.9-194.553,471.646-376.219,548.709-197.631,83.834-412.392,113.516-637.052,168.579L890.447,2962.87c338.594-154.553,976.08-35.983,1100.67-601.092l117.605-92.498h-.002Zm123.388-101.65c44.062-37.881,78.756-60.212,114.238-82.181-51.859,310.585-92.539,477.294-237.626,654.338-116.025,141.581-343.983,227.235-539.109,288.611l-230.425-13.401c167.47-49.769,344.601-84.112,518.603-174.915c176.81-92.268,329.386-270.377,374.319-672.452Zm400.282-180.329c-28.781,49.716-49.448,86.791-66.701,138.688-105.734,318.053-136.891,620.028-545.025,867.804l-197.33,23.189c404.127-184.008,518.73-384.728,615.458-838.924c11.18-52.495,40.225-146.942,48.024-161.429c43.445-13.944,80.799-27.052,145.574-29.328Zm344.603,79.355c-296.351,150.524-239.298,458.397-600.376,834.174l-146.697,42.13c433.308-382.831,342.681-756.056,582.808-937.207c57.14,20.066,109.092,32.76,164.265,60.903Zm-233.507,1369.04l-130.553-1.872c15.051-122.877,33.115-165.899,38.839-191.852c43.677-.38,73.347,4.179,115.11,5.616-6.586,46.715-18.259,69.838-23.396,188.108Zm279.56,0l-119.173-1.872c9.361-85.181,16.045-129.147,21.057-179.993c43.678-.38,66.235,5.833,107.999,7.27-6.586,46.716-4.746,56.325-9.883,174.595Zm-251.898-798.221c42.273.185,67.813,12.638,100.036,15.849-12.393,114.304-21.078,179.534-26.701,211.317-30.218-1.543-62.51-9.824-96.162-12.357c8.515-54.929,20.129-104.071,22.827-214.809ZM885.638,2985.902c78.507,3.444,171.771,14.605,254.008,26.539c303.929,44.106,541.244,41.253,805.495,14.689c485.956-48.85,469.432-241.888,1297.43-55.796l-2.511,57.752c-735.25-183.375-797.973-13.68-1292.33,39.23-169.336,18.124-348.122,22.677-576.187,8.171-140.472-8.935-283.672-38.042-486.886-50.532l.978-40.053h.003Zm-4.211,84.445c76.909.181,215.256,14.625,346.524,30.606c161.287,19.636,334.573,29.432,571.225,21.746c126.3-4.102,271.954-20.793,361.442-39.856c130.811-27.864,239.286-46.53,331.409-56.112c296.195-30.809,262.69,39.013,746.981,56.288l.865,49.578c-499.554-7.891-444.303-111.99-1103.59,2.44-133.626,23.193-387.166,38.508-604.753,29.12-172.338-7.436-320.797-22.032-430.744-35.507-86.159-10.559-181.26-16.317-218.517-14.803l-.845-43.5h.003Zm1.601,90.136c142.199-3.609,390.091,33.256,575.248,42.386c109.328,5.391,302.954,8.138,408.434,3.438c152.172-6.781,273.621-22.972,406.011-39.346c459.208-56.796,549.305,22.907,967.152,16.849-.727,16.45.399,41.343,0,49.973-378.159,2.146-534.781-34.562-782.313-25.542-262.583,9.568-442.245,49.527-744.722,45.274-184.545-2.595-360.031-10.763-518.883-28.639-113.963-12.824-206.593-16.499-307.837-20.794-3.64-13.772-3.379-28.929-3.09-43.599Zm2096.55-527.376c51.064,17.65,72.34,30.562,108.855,44.889l-9.51,230.817c-33.269-7.045-55.605-19.551-124.51-24.384c8.389-74.204,13.297-108.401,25.165-251.322Z" clip-rule="evenodd" fill="#e56601" fill-rule="evenodd" stroke="#aa4001" stroke-width="2" stroke-linecap="round" stroke-linejoin="round" stroke-miterlimit="1.5"/><path d="M2076.72,2274.28c-49.851,326.9-194.553,471.646-376.219,548.709-197.631,83.834-412.392,113.516-637.052,168.579L858.447,2967.87c338.594-154.553,976.08-35.983,1100.67-601.092l117.605-92.498h-.002Zm123.388-101.65c44.062-37.881,78.756-60.212,114.238-82.181-51.859,310.585-92.539,477.294-237.626,654.338-116.025,141.581-343.983,227.235-539.109,288.611l-230.425-13.401c167.47-49.769,344.601-84.112,518.603-174.915c176.81-92.268,329.386-270.377,374.319-672.452Zm400.282-180.329c-28.781,49.716-49.448,86.791-66.701,138.688-105.734,318.053-136.891,620.028-545.025,867.804l-197.33,23.189c404.127-184.008,518.73-384.728,615.458-838.924c11.18-52.495,40.225-146.942,48.024-161.429c43.445-13.944,80.799-27.052,145.574-29.328Zm344.603,79.355c-296.351,150.524-239.298,458.397-600.376,834.174l-146.697,42.13c433.308-382.831,342.681-756.056,582.808-937.207c57.14,20.066,109.092,32.76,164.265,60.903Zm-233.507,1369.04l-130.553-1.872c15.051-122.877,33.115-165.899,38.839-191.852c43.677-.38,73.347,4.179,115.11,5.616-6.586,46.715-18.259,69.838-23.396,188.108Zm279.56,0l-119.173-1.872c9.361-85.181,16.045-129.147,21.057-179.993c43.678-.38,66.235,5.833,107.999,7.27-6.586,46.716-4.746,56.325-9.883,174.595Zm-251.898-798.221c42.273.185,67.813,12.638,100.036,15.849-12.393,114.304-21.078,179.534-26.701,211.317-30.218-1.543-62.51-9.824-96.162-12.357c8.515-54.929,20.129-104.071,22.827-214.809ZM853.638,2990.902c78.507,3.444,171.771,14.605,254.008,26.539c303.929,44.106,541.244,41.253,805.495,14.689c485.956-48.85,469.432-241.888,1297.43-55.796l-2.511,57.752c-735.25-183.375-797.973-13.68-1292.33,39.23-169.336,18.124-348.122,22.677-576.187,8.171-140.472-8.935-283.672-38.042-486.886-50.532l.978-40.053h.003Zm-4.211,84.445c76.909.181,215.256,14.625,346.524,30.606c161.287,19.636,334.573,29.432,571.225,21.746c126.3-4.102,271.954-20.793,361.442-39.856c130.811-27.864,239.286-46.53,331.409-56.112c296.195-30.809,262.69,39.013,746.981,56.288l.865,49.578c-499.554-7.891-444.303-111.99-1103.59,2.44-133.626,23.193-387.166,38.508-604.753,29.12-172.338-7.436-320.797-22.032-430.744-35.507-86.159-10.559-181.26-16.317-218.517-14.803l-.845-43.5h.003Zm1.601,90.136c142.199-3.609,390.091,33.256,575.248,42.386c109.328,5.391,302.954,8.138,408.434,3.438c152.172-6.781,273.621-22.972,406.011-39.346c459.208-56.796,549.305,22.907,967.152,16.849-.727,16.45.399,41.343,0,49.973-378.159,2.146-534.781-34.562-782.313-25.542-262.583,9.568-442.245,49.527-744.722,45.274-184.545-2.595-360.031-10.763-518.883-28.639-113.963-12.824-206.593-16.499-307.837-20.794-3.64-13.772-3.379-28.929-3.09-43.599Zm2096.55-527.376c51.064,17.65,72.34,30.562,108.855,44.889l-9.51,230.817c-33.269-7.045-55.605-19.551-124.51-24.384c8.389-74.204,13.297-108.401,25.165-251.322Z" clip-rule="evenodd" fill="#fa750a" fill-rule="evenodd" stroke="#994203" stroke-width="2" stroke-linecap="round" stroke-linejoin="round" stroke-miterlimit="1.5"/></g><g clip-rule="evenodd"><path d="M1238.19,1791.31c24.727-11.555,35.409-15.408,67.741-33.333c104.394,24.383,212.385-33.376,291.594-76.491c68.978-37.546,188.658-107.719,295.683-176.448c90.121-62.011,21.43-84.793-75.167-41.196-101.398,41.018-186.189,87.872-295.847,133.374-123.835,44.814-203.939,39.014-304.364-10.564-166.756-81.625-365.622-325.546-406.919-416.783-54.204-119.748-.541-220.342,48.73-279.916c91.193-118.486,223.951-166.253,433.442-182.749c157.265-11.808,648.448-23.102,1062.52,1.171c162.089,7.103,551.963,37.529,855.434,138.892l-100.811,28.42c-163.46-51.142-245.306-58.991-377.978-81.826-255.052-37.743-442.93-42.332-686.581-49.543-302.438-10.519-474.252,7.529-694.409,14.901C1086.341,780.443,989.561,878.72,950.35,946.611c-34.1,50.908-56.535,153.477,3.963,273.784c58.134,115.606,161.898,221.802,254.381,279.601c106.752,66.717,202.848,76.254,338.571,29.28c125.02-47.78,212.597-97.417,344.505-134.568c139.838-39.384,229.436-17.164,187.132,39.44-16.043,20.033-69.191,52.412-137.416,93.022-210.897,125.531-389.728,264.55-528.739,290.007-89.77,13.82-141.851-6.014-174.557-25.867Zm-149.39,34.102l71.406-10.143c73.344,47.261,113.445,68.54,194.673,69.667c89.658,1.243,209.591-52.526,330.061-136.597c128.691-82.366,202.247-151.058,456.224-273.62c198.683-95.879,181.163-128.041,73.897-150.232-120.125-22.573-255.386,7.384-333.354,29.347-178.156,50.185-315.398,127.263-454.771,134.273-212.832-3.84-354.187-202.461-374.706-327.059-43.493-219.77,131.197-305.384,302.494-336.94c86.201-15.88,670.182-78.203,1376.24,22.214c76.873,10.933,196.596,33.904,269.929,60.932l-86.502,28.919c-117.416-24.957-177.55-36.693-242.326-47.5-342.507-57.139-637.221-45.858-843.855-48.89-279.726,14.016-553.791,29.783-631.408,154.099-104.727,151.554,6.535,347.311,132.381,400.308c111.702,47.04,214.913,28.535,387.284-33.388c203.206-73.001,384.82-102.663,557.928-84.944c108.898,11.147,270.671,71.285,178.759,138.53-29.291,21.43-156.147,45.885-309.709,109.217-200.233,82.581-347.224,213.47-533.535,332.974-130.708,74.46-197.566,84.798-255.175,85.639-92.666,1.353-194.572-50.538-265.93-116.806h-.005Zm-172.196,1.725l83.935.984c140.818,113.823,232.265,171.744,355.261,171.976c223.049.421,396.431-196.531,589.015-317.321c178.202-111.77,292.011-173.08,566.12-201.746c14.296-1.495,157.27-14.495,167.276-72.849c9.534-55.6-98.376-120.176-202.513-147.406-137.964-36.074-317.724-52.082-553.766-2.476-133.615,28.08-320.33,94.848-425.621,93.819-87.57-.855-221.22-43.2-225.396-201.369-3.016-114.208,65.601-212.145,401.345-247.757c124.983-13.257,344.981-24.272,659.276-7.387c102.354,5.499,300.119,26.976,453.402,72.182l-111.03,22.017c-106.938-22.462-182.276-38.238-343.203-49.956-139.613-10.166-418.957-16.821-668.992,19.1-100.889,14.494-292.162,56.241-284.476,206.819c5.749,112.638,119.94,134.963,213.257,120.32c183.89-28.854,360.174-100.854,629.815-99.575c272.417,1.293,587.633,80.887,597.558,232.418c3.691,56.336-14.991,95.501-156.758,106.099-153.351,11.464-285.711-9.182-510.423,91.124-277.774,123.991-454.064,374-701.222,428.604-61.887,13.673-168.684,20.076-268.962-33.521-63.412-33.892-177.141-103.969-263.898-184.099Zm-187.6,1.003h94.859c212.136,159.641,365.257,288.515,559.225,281.771c215.424-22.767,298.038-105.047,564.711-316.385c82.457-65.347,247.785-187.497,505.85-214.296c161.711-16.794,510.274,55.146,562.872-78.177c51.682-131.002-253.885-336.066-728.423-355.934-294.016-12.31-494.693,56.227-600.581,70.819-92.841,12.794-185.8,15.105-188.544-62.542-3.199-90.513,111.513-139.028,274.079-154.513c133.088-12.678,265.716-24.15,414.796-21.154c79.263,1.593,242.715,5.72,395.482,38.628l-120.484,19.315c-77.395-5.005-109.653-13.756-235.45-15.636-130.099-1.943-421.553,15.131-522.404,41.388-39.955,10.402-97.616,31.739-94.732,72.658c2.754,39.071,55.415,31.203,142.558,19.314c92-12.55,224.294-46.877,454.344-50.584c73.994-1.193,152.948,2.711,234.53,11.956c302.125,34.238,718.587,179.051,726.584,382.606c4.92,125.254-162.952,144.597-226.253,146.236-129.364,3.351-265.94-19.286-442.388-22.073-161.108-2.545-287.246,56.614-401.92,125.083-257.919,153.996-407.359,401.028-723.825,414.796-196.376,8.544-434.111-184.112-644.886-333.276Z" clip-rule="evenodd" fill="#e46401" fill-rule="evenodd" stroke="#883c00" stroke-width="2" stroke-linecap="round" stroke-linejoin="round" stroke-miterlimit="1.5"/><path d="M1229.19,1765.31c24.727-11.555,35.409-15.408,67.741-33.333c104.394,24.383,212.385-33.376,291.594-76.491c68.978-37.546,188.658-107.719,295.683-176.448c90.121-62.011,21.43-84.793-75.167-41.196-101.398,41.018-186.189,87.872-295.847,133.374-123.835,44.814-203.939,39.014-304.364-10.564-166.756-81.625-365.622-325.546-406.919-416.783-54.204-119.748-.541-220.342,48.73-279.916c91.193-118.486,223.951-166.253,433.442-182.749c157.265-11.808,648.448-23.102,1062.52,1.171c162.089,7.103,551.963,37.529,855.434,138.892l-100.811,28.42c-163.46-51.142-245.306-58.991-377.978-81.826-255.052-37.743-442.93-42.332-686.581-49.543-302.438-10.519-474.252,7.529-694.409,14.901C1077.341,754.443,980.561,852.72,941.35,920.611c-34.1,50.908-56.535,153.477,3.963,273.784c58.134,115.606,161.898,221.802,254.381,279.601c106.752,66.717,202.848,76.254,338.571,29.28c125.02-47.78,212.597-97.417,344.505-134.568c139.838-39.384,229.436-17.164,187.132,39.44-16.043,20.033-69.191,52.412-137.416,93.022-210.897,125.531-389.728,264.55-528.739,290.007-89.77,13.82-141.851-6.014-174.557-25.867Zm-149.39,34.102l71.406-10.143c73.344,47.261,113.445,68.54,194.673,69.667c89.658,1.243,209.591-52.526,330.061-136.597c128.691-82.366,202.247-151.058,456.224-273.62c198.683-95.879,181.163-128.041,73.897-150.232-120.125-22.573-255.386,7.384-333.354,29.347-178.156,50.185-315.398,127.263-454.771,134.273-212.832-3.84-354.187-202.461-374.706-327.059-43.493-219.77,131.197-305.384,302.494-336.94c86.201-15.88,670.182-78.203,1376.24,22.214c76.873,10.933,196.596,33.904,269.929,60.932l-86.502,28.919c-117.416-24.957-177.55-36.693-242.326-47.5-342.507-57.139-637.221-45.858-843.855-48.89-279.726,14.016-553.791,29.783-631.408,154.099-104.727,151.554,6.535,347.311,132.381,400.308c111.702,47.04,214.913,28.535,387.284-33.388c203.206-73.001,384.82-102.663,557.928-84.944c108.898,11.147,270.671,71.285,178.759,138.53-29.291,21.43-156.147,45.885-309.709,109.217-200.233,82.581-347.224,213.47-533.535,332.974-130.708,74.46-197.566,84.798-255.175,85.639-92.666,1.353-194.572-50.538-265.93-116.806h-.005Zm-172.196,1.725l83.935.984c140.818,113.823,232.265,171.744,355.261,171.976c223.049.421,396.431-196.531,589.015-317.321c178.202-111.77,292.011-173.08,566.12-201.746c14.296-1.495,157.27-14.495,167.276-72.849c9.534-55.6-98.376-120.176-202.513-147.406-137.964-36.074-317.724-52.082-553.766-2.476-133.615,28.08-320.33,94.848-425.621,93.819-87.57-.855-221.22-43.2-225.396-201.369-3.016-114.208,65.601-212.145,401.345-247.757c124.983-13.257,344.981-24.272,659.276-7.387c102.354,5.499,300.119,26.976,453.402,72.182l-111.03,22.017c-106.938-22.462-182.276-38.238-343.203-49.956-139.613-10.166-418.957-16.821-668.992,19.1-100.889,14.494-292.162,56.241-284.476,206.819c5.749,112.638,119.94,134.963,213.257,120.32c183.89-28.854,360.174-100.854,629.815-99.575c272.417,1.293,587.633,80.887,597.558,232.418c3.691,56.336-14.991,95.501-156.758,106.099-153.351,11.464-285.711-9.182-510.423,91.124-277.774,123.991-454.064,374-701.222,428.604-61.887,13.673-168.684,20.076-268.962-33.521-63.412-33.892-177.141-103.969-263.898-184.099Zm-187.6,1.003h94.859c212.136,159.641,365.257,288.515,559.225,281.771c215.424-22.767,298.038-105.047,564.711-316.385c82.457-65.347,247.785-187.497,505.85-214.296c161.711-16.794,510.274,55.146,562.872-78.177c51.682-131.002-253.885-336.066-728.423-355.934-294.016-12.31-494.693,56.227-600.581,70.819-92.841,12.794-185.8,15.105-188.544-62.542-3.199-90.513,111.513-139.028,274.079-154.513c133.088-12.678,265.716-24.15,414.796-21.154c79.263,1.593,242.715,5.72,395.482,38.628l-120.484,19.315c-77.395-5.005-109.653-13.756-235.45-15.636-130.099-1.943-421.553,15.131-522.404,41.388-39.955,10.402-97.616,31.739-94.732,72.658c2.754,39.071,55.415,31.203,142.558,19.314c92-12.55,224.294-46.877,454.344-50.584c73.994-1.193,152.948,2.711,234.53,11.956c302.125,34.238,718.587,179.051,726.584,382.606c4.92,125.254-162.952,144.597-226.253,146.236-129.364,3.351-265.94-19.286-442.388-22.073-161.108-2.545-287.246,56.614-401.92,125.083-257.919,153.996-407.359,401.028-723.825,414.796-196.376,8.544-434.111-184.112-644.886-333.276Z" clip-rule="evenodd" fill="#fa750a" fill-rule="evenodd" stroke="#9c4303" stroke-width="2" stroke-linecap="round" stroke-linejoin="round" stroke-miterlimit="1.5"/></g></g><g clip-rule="evenodd"><g clip-rule="evenodd"><path d="M2791.88,2232.13c59.37,230.455-79.815,458.222-348.209,782.171-1.131,1.153-1.284,8.124-.925,8.281c15.086,27.856,27.197,53.105,36.863,65.316c83.255-37.237,204.265-51.562,329.976-10.412c22.125,5.923,70.249,19.925,70.249,19.925l-124.01,357.672l231.701.761l71.263-341.639c0,0,1.089-.928,1.421-1.544c215.464-51.765,191.98-219.734,147.491-274.335-42.547,54.622-106.425,78.536-106.425,78.536l80.738-385.314h-104.95l-135.039,388.445c-138.026-29.652-208.34-36.025-320.06,3.786l-2.053-3.951c313.476-261.84,388.773-452.084,388.773-452.084c42.424-83.862,57.069-286.069-216.804-235.614Z" clip-rule="evenodd" fill="#d5ad00" fill-rule="evenodd" stroke="#a98603" stroke-width="2" stroke-linecap="round" stroke-linejoin="round" stroke-miterlimit="1.5"/><path d="M2773.88,2202.13c59.37,230.455-79.815,458.222-348.209,782.171-1.131,1.153-1.284,8.124-.925,8.281c15.086,27.856,27.197,53.105,36.863,65.316c83.255-37.237,204.265-51.562,329.976-10.412c22.125,5.923,70.249,19.925,70.249,19.925l-124.01,357.672l231.701.761l71.263-341.639c0,0,1.089-.928,1.421-1.544c215.464-51.765,191.98-219.734,147.491-274.335-42.547,54.622-106.425,78.536-106.425,78.536l80.738-385.314h-104.95l-135.039,388.445c-138.026-29.652-208.34-36.025-320.06,3.786l-2.053-3.951c313.476-261.84,388.773-452.084,388.773-452.084c42.424-83.862,57.069-286.069-216.804-235.614Z" clip-rule="evenodd" fill="#facd0a" fill-rule="evenodd" stroke="#a98603" stroke-width="2" stroke-linecap="round" stroke-linejoin="round" stroke-miterlimit="1.5"/></g><g clip-rule="evenodd"><path d="M2533.36,1399.08c-111.144-1.611-182.435,62.896-189.393,154.223-6.455,84.722,39.124,174.854,161.871,174.265c152.916-7.231,224.255-141.396,191.184-274.609-49.514-198.513-384.696-392-344.036-628.01c32.26-209.069,250.142-272.716,387.486-267.077c252.891,10.384,306.282,195.854,267.101,302.116-46.219,125.348-178.148,95.324-215.83,34.888c63.06-40.177,106.231-177.464,22.596-237.936-22.013-15.916-155.346-57.171-210.302,76.473-52.117,126.738,57.355,242.456,57.355,242.456c40.336,64.226,208.186,201.518,260.705,335.44c51.138,130.403,30.046,236.805-1.187,301.316-76.3,157.594-257.363,240.323-456.785,228.785-193.944-11.222-291.445-130.803-305.025-252.015-20.331-181.468,103.496-268.538,144.257-283.3c45.949-22.627,200.363-40.696,230.003,92.985Z" clip-rule="evenodd" fill="#d5ad00" fill-rule="evenodd" stroke="#947800" stroke-width="2" stroke-linecap="round" stroke-linejoin="round" stroke-miterlimit="1.5"/><path d="M2515.36,1369.08c-111.144-1.611-182.435,62.896-189.393,154.223-6.455,84.722,39.124,174.854,161.871,174.265c152.916-7.231,224.255-141.396,191.184-274.609-49.514-198.513-384.696-392-344.036-628.01c32.26-209.069,250.142-272.716,387.486-267.077c252.891,10.384,306.282,195.854,267.101,302.116-46.219,125.348-178.148,95.324-215.83,34.888c63.06-40.177,106.231-177.464,22.596-237.936-22.013-15.916-155.346-57.171-210.302,76.473-52.117,126.738,57.355,242.456,57.355,242.456c40.336,64.226,208.186,201.518,260.705,335.44c51.138,130.403,30.046,236.805-1.187,301.316-76.3,157.594-257.363,240.323-456.785,228.785-193.944-11.222-291.445-130.803-305.025-252.015-20.331-181.468,103.496-268.538,144.257-283.3c45.949-22.627,200.363-40.696,230.003,92.985Z" clip-rule="evenodd" fill="#facd0a" fill-rule="evenodd" stroke="#af8d01" stroke-width="2" stroke-linecap="round" stroke-linejoin="round" stroke-miterlimit="1.5"/></g></g></g></g></svg>
